<?xml version="1.0" encoding="UTF-8" standalone="no"?>
<!DOCTYPE svg PUBLIC "-//W3C//DTD SVG 1.1//EN"
 "http://www.w3.org/Graphics/SVG/1.1/DTD/svg11.dtd">
<!-- Generated by graphviz version 5.0.0 (20220707.1540)
 -->
<!-- Title: workflow Pages: 1 -->
<svg width="791pt" height="216pt"
 viewBox="0.00 0.00 791.07 215.50" xmlns="http://www.w3.org/2000/svg" xmlns:xlink="http://www.w3.org/1999/xlink">
<g id="graph0" class="graph" transform="scale(1 1) rotate(0) translate(4 211.5)">
<title>workflow</title>
<polygon fill="white" stroke="transparent" points="-4,4 -4,-211.5 787.07,-211.5 787.07,4 -4,4"/>
<!-- place_81f4e215323c764b766812b87fb7495b5e3c1e9e -->
<g id="node1" class="node">
<title>place_81f4e215323c764b766812b87fb7495b5e3c1e9e</title>
<ellipse fill="lightblue" stroke="#333333" cx="36" cy="-104.02" rx="36" ry="36"/>
<text text-anchor="middle" x="36" y="-101.82" font-family="Arial" font-size="9.00">new_article</text>
</g>
<!-- transition_b6589fc6ab0dc82cf12099d1c2d40ab994e8410c -->
<g id="node7" class="node">
<title>transition_b6589fc6ab0dc82cf12099d1c2d40ab994e8410c</title>
<polygon fill="none" stroke="#333333" points="180,-140.02 108,-140.02 108,-68.02 180,-68.02 180,-140.02"/>
<text text-anchor="middle" x="144" y="-101.82" font-family="Arial" font-size="9.00">create_article</text>
</g>
<!-- place_81f4e215323c764b766812b87fb7495b5e3c1e9e&#45;&gt;transition_b6589fc6ab0dc82cf12099d1c2d40ab994e8410c -->
<g id="edge1" class="edge">
<title>place_81f4e215323c764b766812b87fb7495b5e3c1e9e&#45;&gt;transition_b6589fc6ab0dc82cf12099d1c2d40ab994e8410c</title>
<path fill="none" stroke="#333333" d="M72,-104.02C81.76,-104.02 92.44,-104.02 102.49,-104.02"/>
<polygon fill="#333333" stroke="#333333" points="102.67,-105.78 107.67,-104.02 102.67,-102.28 102.67,-105.78"/>
</g>
<!-- place_cf33d5b52482b31b226cf880fbcb6e014ef05bcc -->
<g id="node2" class="node">
<title>place_cf33d5b52482b31b226cf880fbcb6e014ef05bcc</title>
<ellipse fill="ORANGE" stroke="#333333" cx="263.51" cy="-160.02" rx="45.92" ry="45.92"/>
<text text-anchor="middle" x="263.51" y="-157.82" font-family="Arial" font-size="9.00">checking_content</text>
</g>
<!-- transition_da4b9237bacccdf19c0760cab7aec4a8359010b0 -->
<g id="node9" class="node">
<title>transition_da4b9237bacccdf19c0760cab7aec4a8359010b0</title>
<polygon fill="none" stroke="#333333" points="433.52,-202.52 348.52,-202.52 348.52,-117.52 433.52,-117.52 433.52,-202.52"/>
<text text-anchor="middle" x="391.02" y="-157.82" font-family="Arial" font-size="9.00">approve_content</text>
</g>
<!-- place_cf33d5b52482b31b226cf880fbcb6e014ef05bcc&#45;&gt;transition_da4b9237bacccdf19c0760cab7aec4a8359010b0 -->
<g id="edge6" class="edge">
<title>place_cf33d5b52482b31b226cf880fbcb6e014ef05bcc&#45;&gt;transition_da4b9237bacccdf19c0760cab7aec4a8359010b0</title>
<path fill="none" stroke="#333333" d="M309.82,-160.02C320.56,-160.02 332.04,-160.02 342.86,-160.02"/>
<polygon fill="#333333" stroke="#333333" points="343.12,-161.78 348.12,-160.02 343.12,-158.28 343.12,-161.78"/>
</g>
<!-- place_eca21801df2a0fcfbd954a8fc6920a8d76b129ef -->
<g id="node3" class="node">
<title>place_eca21801df2a0fcfbd954a8fc6920a8d76b129ef</title>
<ellipse fill="DeepSkyBlue" stroke="#333333" cx="519.04" cy="-161.02" rx="46.45" ry="46.45"/>
<text text-anchor="middle" x="519.04" y="-158.82" font-family="Arial" font-size="9.00">content_approved</text>
</g>
<!-- transition_77de68daecd823babbb58edb1c8e14d7106e83bb -->
<g id="node10" class="node">
<title>transition_77de68daecd823babbb58edb1c8e14d7106e83bb</title>
<polygon fill="none" stroke="#333333" points="675.07,-140.02 603.07,-140.02 603.07,-68.02 675.07,-68.02 675.07,-140.02"/>
<text text-anchor="middle" x="639.07" y="-101.82" font-family="Arial" font-size="9.00">publish</text>
</g>
<!-- place_eca21801df2a0fcfbd954a8fc6920a8d76b129ef&#45;&gt;transition_77de68daecd823babbb58edb1c8e14d7106e83bb -->
<g id="edge8" class="edge">
<title>place_eca21801df2a0fcfbd954a8fc6920a8d76b129ef&#45;&gt;transition_77de68daecd823babbb58edb1c8e14d7106e83bb</title>
<path fill="none" stroke="#333333" d="M561.32,-141.09C573.29,-135.31 586.34,-129.01 598.22,-123.27"/>
<polygon fill="#333333" stroke="#333333" points="599.14,-124.77 602.89,-121.02 597.62,-121.61 599.14,-124.77"/>
</g>
<!-- place_8c9a8f5233ada80b50ed6fb6b963db314d995d71 -->
<g id="node4" class="node">
<title>place_8c9a8f5233ada80b50ed6fb6b963db314d995d71</title>
<ellipse fill="ORANGE" stroke="#333333" cx="263.51" cy="-49.02" rx="47.52" ry="47.52"/>
<text text-anchor="middle" x="263.51" y="-46.82" font-family="Arial" font-size="9.00">checking_spelling</text>
</g>
<!-- transition_356a192b7913b04c54574d18c28d46e6395428ab -->
<g id="node8" class="node">
<title>transition_356a192b7913b04c54574d18c28d46e6395428ab</title>
<polygon fill="none" stroke="#333333" points="435.02,-92.02 347.02,-92.02 347.02,-4.02 435.02,-4.02 435.02,-92.02"/>
<text text-anchor="middle" x="391.02" y="-45.82" font-family="Arial" font-size="9.00">approve_spelling</text>
</g>
<!-- place_8c9a8f5233ada80b50ed6fb6b963db314d995d71&#45;&gt;transition_356a192b7913b04c54574d18c28d46e6395428ab -->
<g id="edge4" class="edge">
<title>place_8c9a8f5233ada80b50ed6fb6b963db314d995d71&#45;&gt;transition_356a192b7913b04c54574d18c28d46e6395428ab</title>
<path fill="none" stroke="#333333" d="M311.24,-48.65C321.21,-48.57 331.76,-48.49 341.79,-48.41"/>
<polygon fill="#333333" stroke="#333333" points="341.99,-50.16 346.98,-48.37 341.96,-46.66 341.99,-50.16"/>
</g>
<!-- place_ef7e3e9f511ea91189c5be35e6b4936128d15bfc -->
<g id="node5" class="node">
<title>place_ef7e3e9f511ea91189c5be35e6b4936128d15bfc</title>
<ellipse fill="DeepSkyBlue" stroke="#333333" cx="519.04" cy="-48.02" rx="48.05" ry="48.05"/>
<text text-anchor="middle" x="519.04" y="-45.82" font-family="Arial" font-size="9.00">spelling_approved</text>
</g>
<!-- place_ef7e3e9f511ea91189c5be35e6b4936128d15bfc&#45;&gt;transition_77de68daecd823babbb58edb1c8e14d7106e83bb -->
<g id="edge9" class="edge">
<title>place_ef7e3e9f511ea91189c5be35e6b4936128d15bfc&#45;&gt;transition_77de68daecd823babbb58edb1c8e14d7106e83bb</title>
<path fill="none" stroke="#333333" d="M562.65,-68.24C574.21,-73.72 586.67,-79.64 598.08,-85.05"/>
<polygon fill="#333333" stroke="#333333" points="597.63,-86.77 602.9,-87.34 599.13,-83.61 597.63,-86.77"/>
</g>
<!-- place_c2807535f28e44fe6c7375dcf90518115529a8fa -->
<g id="node6" class="node">
<title>place_c2807535f28e44fe6c7375dcf90518115529a8fa</title>
<ellipse fill="Lime" stroke="#333333" cx="747.07" cy="-104.02" rx="36" ry="36"/>
<text text-anchor="middle" x="747.07" y="-101.82" font-family="Arial" font-size="9.00">published</text>
</g>
<!-- transition_b6589fc6ab0dc82cf12099d1c2d40ab994e8410c&#45;&gt;place_cf33d5b52482b31b226cf880fbcb6e014ef05bcc -->
<g id="edge2" class="edge">
<title>transition_b6589fc6ab0dc82cf12099d1c2d40ab994e8410c&#45;&gt;place_cf33d5b52482b31b226cf880fbcb6e014ef05bcc</title>
<path fill="none" stroke="#333333" d="M180.26,-120.83C191.72,-126.29 204.6,-132.43 216.71,-138.2"/>
<polygon fill="#333333" stroke="#333333" points="216.23,-139.91 221.49,-140.48 217.73,-136.75 216.23,-139.91"/>
</g>
<!-- transition_b6589fc6ab0dc82cf12099d1c2d40ab994e8410c&#45;&gt;place_8c9a8f5233ada80b50ed6fb6b963db314d995d71 -->
<g id="edge3" class="edge">
<title>transition_b6589fc6ab0dc82cf12099d1c2d40ab994e8410c&#45;&gt;place_8c9a8f5233ada80b50ed6fb6b963db314d995d71</title>
<path fill="none" stroke="#333333" d="M180.26,-87.52C191.36,-82.33 203.8,-76.5 215.58,-70.99"/>
<polygon fill="#333333" stroke="#333333" points="216.44,-72.52 220.23,-68.81 214.96,-69.35 216.44,-72.52"/>
</g>
<!-- transition_356a192b7913b04c54574d18c28d46e6395428ab&#45;&gt;place_ef7e3e9f511ea91189c5be35e6b4936128d15bfc -->
<g id="edge5" class="edge">
<title>transition_356a192b7913b04c54574d18c28d46e6395428ab&#45;&gt;place_ef7e3e9f511ea91189c5be35e6b4936128d15bfc</title>
<path fill="none" stroke="#333333" d="M435.04,-48.02C444.96,-48.02 455.63,-48.02 465.9,-48.02"/>
<polygon fill="#333333" stroke="#333333" points="465.9,-49.78 470.9,-48.02 465.9,-46.28 465.9,-49.78"/>
</g>
<!-- transition_da4b9237bacccdf19c0760cab7aec4a8359010b0&#45;&gt;place_eca21801df2a0fcfbd954a8fc6920a8d76b129ef -->
<g id="edge7" class="edge">
<title>transition_da4b9237bacccdf19c0760cab7aec4a8359010b0&#45;&gt;place_eca21801df2a0fcfbd954a8fc6920a8d76b129ef</title>
<path fill="none" stroke="#333333" d="M433.63,-160.36C444.45,-160.44 456.22,-160.53 467.45,-160.62"/>
<polygon fill="#333333" stroke="#333333" points="467.55,-162.37 472.56,-160.66 467.58,-158.87 467.55,-162.37"/>
</g>
<!-- transition_77de68daecd823babbb58edb1c8e14d7106e83bb&#45;&gt;place_c2807535f28e44fe6c7375dcf90518115529a8fa -->
<g id="edge10" class="edge">
<title>transition_77de68daecd823babbb58edb1c8e14d7106e83bb&#45;&gt;place_c2807535f28e44fe6c7375dcf90518115529a8fa</title>
<path fill="none" stroke="#333333" d="M675.07,-104.02C684.83,-104.02 695.51,-104.02 705.55,-104.02"/>
<polygon fill="#333333" stroke="#333333" points="705.74,-105.78 710.74,-104.02 705.74,-102.28 705.74,-105.78"/>
</g>
</g>
</svg>
