<?xml version="1.0" encoding="UTF-8" standalone="no"?>
<!DOCTYPE svg PUBLIC "-//W3C//DTD SVG 1.1//EN"
 "http://www.w3.org/Graphics/SVG/1.1/DTD/svg11.dtd">
<!-- Generated by graphviz version 5.0.0 (20220707.1540)
 -->
<!-- Title: workflow Pages: 1 -->
<svg width="399pt" height="174pt"
 viewBox="0.00 0.00 399.33 173.66" xmlns="http://www.w3.org/2000/svg" xmlns:xlink="http://www.w3.org/1999/xlink">
<g id="graph0" class="graph" transform="scale(1 1) rotate(0) translate(4 169.66)">
<title>workflow</title>
<polygon fill="white" stroke="transparent" points="-4,4 -4,-169.66 395.33,-169.66 395.33,4 -4,4"/>
<!-- place_943d9ab6a4d1823ffb91f585c255e2de8abcfbbc -->
<g id="node1" class="node">
<title>place_943d9ab6a4d1823ffb91f585c255e2de8abcfbbc</title>
<ellipse fill="lightblue" stroke="#333333" cx="36" cy="-81" rx="36" ry="36"/>
<text text-anchor="middle" x="36" y="-78.8" font-family="Arial" font-size="9.00">new_blog</text>
</g>
<!-- place_4bc88b13ed225d92881d0683de8e96c47c992eb8 -->
<g id="node2" class="node">
<title>place_4bc88b13ed225d92881d0683de8e96c47c992eb8</title>
<ellipse fill="DeepSkyBlue" stroke="#333333" cx="193" cy="-81" rx="36" ry="36"/>
<text text-anchor="middle" x="193" y="-78.8" font-family="Arial" font-size="9.00">need_review</text>
</g>
<!-- place_943d9ab6a4d1823ffb91f585c255e2de8abcfbbc&#45;&gt;place_4bc88b13ed225d92881d0683de8e96c47c992eb8 -->
<g id="edge1" class="edge">
<title>place_943d9ab6a4d1823ffb91f585c255e2de8abcfbbc&#45;&gt;place_4bc88b13ed225d92881d0683de8e96c47c992eb8</title>
<path fill="none" stroke="#333333" d="M72.17,-81C95.85,-81 127.14,-81 151.81,-81"/>
<polygon fill="#333333" stroke="#333333" points="151.97,-82.75 156.97,-81 151.97,-79.25 151.97,-82.75"/>
<text text-anchor="middle" x="114.5" y="-83.8" font-family="Arial" font-size="9.00">create_blog</text>
</g>
<!-- place_5ddc5ed35736589d013bb4f70a4a4f2ae59a10bd -->
<g id="node3" class="node">
<title>place_5ddc5ed35736589d013bb4f70a4a4f2ae59a10bd</title>
<ellipse fill="Orchid" stroke="#333333" cx="354.66" cy="-129" rx="36.83" ry="36.83"/>
<text text-anchor="middle" x="354.66" y="-126.8" font-family="Arial" font-size="9.00">need_update</text>
</g>
<!-- place_4bc88b13ed225d92881d0683de8e96c47c992eb8&#45;&gt;place_5ddc5ed35736589d013bb4f70a4a4f2ae59a10bd -->
<g id="edge3" class="edge">
<title>place_4bc88b13ed225d92881d0683de8e96c47c992eb8&#45;&gt;place_5ddc5ed35736589d013bb4f70a4a4f2ae59a10bd</title>
<path fill="none" stroke="#333333" d="M224.4,-99.05C231.62,-102.78 239.43,-106.36 247,-109 268.16,-116.38 292.67,-121.22 312.86,-124.29"/>
<polygon fill="#333333" stroke="#333333" points="312.7,-126.03 317.9,-125.03 313.21,-122.57 312.7,-126.03"/>
<text text-anchor="middle" x="273.5" y="-123.8" font-family="Arial" font-size="9.00">reject</text>
</g>
<!-- place_c2807535f28e44fe6c7375dcf90518115529a8fa -->
<g id="node4" class="node">
<title>place_c2807535f28e44fe6c7375dcf90518115529a8fa</title>
<ellipse fill="Lime" stroke="#333333" cx="354.66" cy="-36" rx="36" ry="36"/>
<text text-anchor="middle" x="354.66" y="-33.8" font-family="Arial" font-size="9.00">published</text>
</g>
<!-- place_4bc88b13ed225d92881d0683de8e96c47c992eb8&#45;&gt;place_c2807535f28e44fe6c7375dcf90518115529a8fa -->
<g id="edge2" class="edge">
<title>place_4bc88b13ed225d92881d0683de8e96c47c992eb8&#45;&gt;place_c2807535f28e44fe6c7375dcf90518115529a8fa</title>
<path fill="none" stroke="#333333" d="M227.93,-71.39C234.26,-69.6 240.83,-67.74 247,-66 269.36,-59.69 294.36,-52.66 314.53,-46.99"/>
<polygon fill="#333333" stroke="#333333" points="315.21,-48.62 319.55,-45.58 314.27,-45.25 315.21,-48.62"/>
<text text-anchor="middle" x="273.5" y="-68.8" font-family="Arial" font-size="9.00">publish</text>
</g>
<!-- place_5ddc5ed35736589d013bb4f70a4a4f2ae59a10bd&#45;&gt;place_4bc88b13ed225d92881d0683de8e96c47c992eb8 -->
<g id="edge5" class="edge">
<title>place_5ddc5ed35736589d013bb4f70a4a4f2ae59a10bd&#45;&gt;place_4bc88b13ed225d92881d0683de8e96c47c992eb8</title>
<path fill="none" stroke="#333333" d="M323.66,-109.12C316.19,-104.89 308.01,-100.85 300,-98 278.95,-90.52 254.38,-86.32 234.2,-83.96"/>
<polygon fill="#333333" stroke="#333333" points="234.33,-82.22 229.17,-83.4 233.94,-85.7 234.33,-82.22"/>
<text text-anchor="middle" x="273.5" y="-100.8" font-family="Arial" font-size="9.00">update</text>
</g>
<!-- place_c2807535f28e44fe6c7375dcf90518115529a8fa&#45;&gt;place_4bc88b13ed225d92881d0683de8e96c47c992eb8 -->
<g id="edge4" class="edge">
<title>place_c2807535f28e44fe6c7375dcf90518115529a8fa&#45;&gt;place_4bc88b13ed225d92881d0683de8e96c47c992eb8</title>
<path fill="none" stroke="#333333" d="M318.99,-31.05C297.61,-29.34 269.96,-29.61 247,-38 238.27,-41.19 229.91,-46.46 222.51,-52.25"/>
<polygon fill="#333333" stroke="#333333" points="221.29,-50.99 218.51,-55.5 223.49,-53.7 221.29,-50.99"/>
<text text-anchor="middle" x="273.5" y="-40.8" font-family="Arial" font-size="9.00">need_review</text>
</g>
</g>
</svg>
