<?xml version="1.0" encoding="UTF-8" standalone="no"?>
<!DOCTYPE svg PUBLIC "-//W3C//DTD SVG 1.1//EN"
 "http://www.w3.org/Graphics/SVG/1.1/DTD/svg11.dtd">
<!-- Generated by graphviz version 5.0.0 (20220707.1540)
 -->
<!-- Title: workflow Pages: 1 -->
<svg width="621pt" height="248pt"
 viewBox="0.00 0.00 621.33 247.66" xmlns="http://www.w3.org/2000/svg" xmlns:xlink="http://www.w3.org/1999/xlink">
<g id="graph0" class="graph" transform="scale(1 1) rotate(0) translate(4 243.66)">
<title>workflow</title>
<polygon fill="white" stroke="transparent" points="-4,4 -4,-243.66 617.33,-243.66 617.33,4 -4,4"/>
<!-- place_943d9ab6a4d1823ffb91f585c255e2de8abcfbbc -->
<g id="node1" class="node">
<title>place_943d9ab6a4d1823ffb91f585c255e2de8abcfbbc</title>
<ellipse fill="lightblue" stroke="#333333" cx="36" cy="-120.66" rx="36" ry="36"/>
<text text-anchor="middle" x="36" y="-118.46" font-family="Arial" font-size="9.00">new_blog</text>
</g>
<!-- transition_b6589fc6ab0dc82cf12099d1c2d40ab994e8410c -->
<g id="node5" class="node">
<title>transition_b6589fc6ab0dc82cf12099d1c2d40ab994e8410c</title>
<polygon fill="none" stroke="#333333" points="180,-156.66 108,-156.66 108,-84.66 180,-84.66 180,-156.66"/>
<text text-anchor="middle" x="144" y="-118.46" font-family="Arial" font-size="9.00">create_blog</text>
</g>
<!-- place_943d9ab6a4d1823ffb91f585c255e2de8abcfbbc&#45;&gt;transition_b6589fc6ab0dc82cf12099d1c2d40ab994e8410c -->
<g id="edge1" class="edge">
<title>place_943d9ab6a4d1823ffb91f585c255e2de8abcfbbc&#45;&gt;transition_b6589fc6ab0dc82cf12099d1c2d40ab994e8410c</title>
<path fill="none" stroke="#333333" d="M72,-120.66C81.76,-120.66 92.44,-120.66 102.49,-120.66"/>
<polygon fill="#333333" stroke="#333333" points="102.67,-122.41 107.67,-120.66 102.67,-118.91 102.67,-122.41"/>
</g>
<!-- place_4bc88b13ed225d92881d0683de8e96c47c992eb8 -->
<g id="node2" class="node">
<title>place_4bc88b13ed225d92881d0683de8e96c47c992eb8</title>
<ellipse fill="DeepSkyBlue" stroke="#333333" cx="252" cy="-120.66" rx="36" ry="36"/>
<text text-anchor="middle" x="252" y="-118.46" font-family="Arial" font-size="9.00">need_review</text>
</g>
<!-- transition_356a192b7913b04c54574d18c28d46e6395428ab -->
<g id="node6" class="node">
<title>transition_356a192b7913b04c54574d18c28d46e6395428ab</title>
<polygon fill="none" stroke="#333333" points="396,-239.66 324,-239.66 324,-167.66 396,-167.66 396,-239.66"/>
<text text-anchor="middle" x="360" y="-201.46" font-family="Arial" font-size="9.00">publish</text>
</g>
<!-- place_4bc88b13ed225d92881d0683de8e96c47c992eb8&#45;&gt;transition_356a192b7913b04c54574d18c28d46e6395428ab -->
<g id="edge3" class="edge">
<title>place_4bc88b13ed225d92881d0683de8e96c47c992eb8&#45;&gt;transition_356a192b7913b04c54574d18c28d46e6395428ab</title>
<path fill="none" stroke="#333333" d="M280.85,-142.47C292.75,-151.79 306.84,-162.82 319.77,-172.94"/>
<polygon fill="#333333" stroke="#333333" points="318.72,-174.35 323.74,-176.05 320.88,-171.59 318.72,-174.35"/>
</g>
<!-- transition_77de68daecd823babbb58edb1c8e14d7106e83bb -->
<g id="node8" class="node">
<title>transition_77de68daecd823babbb58edb1c8e14d7106e83bb</title>
<polygon fill="none" stroke="#333333" points="396,-73.66 324,-73.66 324,-1.66 396,-1.66 396,-73.66"/>
<text text-anchor="middle" x="360" y="-35.46" font-family="Arial" font-size="9.00">reject</text>
</g>
<!-- place_4bc88b13ed225d92881d0683de8e96c47c992eb8&#45;&gt;transition_77de68daecd823babbb58edb1c8e14d7106e83bb -->
<g id="edge7" class="edge">
<title>place_4bc88b13ed225d92881d0683de8e96c47c992eb8&#45;&gt;transition_77de68daecd823babbb58edb1c8e14d7106e83bb</title>
<path fill="none" stroke="#333333" d="M280.85,-98.86C292.75,-89.54 306.84,-78.5 319.77,-68.38"/>
<polygon fill="#333333" stroke="#333333" points="320.88,-69.74 323.74,-65.28 318.72,-66.98 320.88,-69.74"/>
</g>
<!-- place_5ddc5ed35736589d013bb4f70a4a4f2ae59a10bd -->
<g id="node3" class="node">
<title>place_5ddc5ed35736589d013bb4f70a4a4f2ae59a10bd</title>
<ellipse fill="Orchid" stroke="#333333" cx="468.66" cy="-36.66" rx="36.83" ry="36.83"/>
<text text-anchor="middle" x="468.66" y="-34.46" font-family="Arial" font-size="9.00">need_update</text>
</g>
<!-- transition_1b6453892473a467d07372d45eb05abc2031647a -->
<g id="node9" class="node">
<title>transition_1b6453892473a467d07372d45eb05abc2031647a</title>
<polygon fill="none" stroke="#333333" points="613.33,-108.66 541.33,-108.66 541.33,-36.66 613.33,-36.66 613.33,-108.66"/>
<text text-anchor="middle" x="577.33" y="-70.46" font-family="Arial" font-size="9.00">update</text>
</g>
<!-- place_5ddc5ed35736589d013bb4f70a4a4f2ae59a10bd&#45;&gt;transition_1b6453892473a467d07372d45eb05abc2031647a -->
<g id="edge9" class="edge">
<title>place_5ddc5ed35736589d013bb4f70a4a4f2ae59a10bd&#45;&gt;transition_1b6453892473a467d07372d45eb05abc2031647a</title>
<path fill="none" stroke="#333333" d="M503.71,-48.15C514.07,-51.65 525.56,-55.53 536.28,-59.15"/>
<polygon fill="#333333" stroke="#333333" points="535.84,-60.85 541.14,-60.79 536.96,-57.53 535.84,-60.85"/>
</g>
<!-- place_c2807535f28e44fe6c7375dcf90518115529a8fa -->
<g id="node4" class="node">
<title>place_c2807535f28e44fe6c7375dcf90518115529a8fa</title>
<ellipse fill="Lime" stroke="#333333" cx="468.66" cy="-203.66" rx="36" ry="36"/>
<text text-anchor="middle" x="468.66" y="-201.46" font-family="Arial" font-size="9.00">published</text>
</g>
<!-- transition_da4b9237bacccdf19c0760cab7aec4a8359010b0 -->
<g id="node7" class="node">
<title>transition_da4b9237bacccdf19c0760cab7aec4a8359010b0</title>
<polygon fill="none" stroke="#333333" points="613.33,-204.66 541.33,-204.66 541.33,-132.66 613.33,-132.66 613.33,-204.66"/>
<text text-anchor="middle" x="577.33" y="-166.46" font-family="Arial" font-size="9.00">need_review</text>
</g>
<!-- place_c2807535f28e44fe6c7375dcf90518115529a8fa&#45;&gt;transition_da4b9237bacccdf19c0760cab7aec4a8359010b0 -->
<g id="edge5" class="edge">
<title>place_c2807535f28e44fe6c7375dcf90518115529a8fa&#45;&gt;transition_da4b9237bacccdf19c0760cab7aec4a8359010b0</title>
<path fill="none" stroke="#333333" d="M503.12,-192.69C513.61,-189.24 525.3,-185.41 536.2,-181.83"/>
<polygon fill="#333333" stroke="#333333" points="536.94,-183.43 541.15,-180.21 535.85,-180.1 536.94,-183.43"/>
</g>
<!-- transition_b6589fc6ab0dc82cf12099d1c2d40ab994e8410c&#45;&gt;place_4bc88b13ed225d92881d0683de8e96c47c992eb8 -->
<g id="edge2" class="edge">
<title>transition_b6589fc6ab0dc82cf12099d1c2d40ab994e8410c&#45;&gt;place_4bc88b13ed225d92881d0683de8e96c47c992eb8</title>
<path fill="none" stroke="#333333" d="M180,-120.66C189.76,-120.66 200.44,-120.66 210.49,-120.66"/>
<polygon fill="#333333" stroke="#333333" points="210.67,-122.41 215.67,-120.66 210.67,-118.91 210.67,-122.41"/>
</g>
<!-- transition_356a192b7913b04c54574d18c28d46e6395428ab&#45;&gt;place_c2807535f28e44fe6c7375dcf90518115529a8fa -->
<g id="edge4" class="edge">
<title>transition_356a192b7913b04c54574d18c28d46e6395428ab&#45;&gt;place_c2807535f28e44fe6c7375dcf90518115529a8fa</title>
<path fill="none" stroke="#333333" d="M396.22,-203.66C406.14,-203.66 417.01,-203.66 427.21,-203.66"/>
<polygon fill="#333333" stroke="#333333" points="427.48,-205.41 432.48,-203.66 427.48,-201.91 427.48,-205.41"/>
</g>
<!-- transition_da4b9237bacccdf19c0760cab7aec4a8359010b0&#45;&gt;place_4bc88b13ed225d92881d0683de8e96c47c992eb8 -->
<g id="edge6" class="edge">
<title>transition_da4b9237bacccdf19c0760cab7aec4a8359010b0&#45;&gt;place_4bc88b13ed225d92881d0683de8e96c47c992eb8</title>
<path fill="none" stroke="#333333" d="M541.07,-163.43C480.48,-154.44 356.96,-136.1 293.15,-126.62"/>
<polygon fill="#333333" stroke="#333333" points="293.11,-124.85 287.91,-125.85 292.6,-128.31 293.11,-124.85"/>
</g>
<!-- transition_77de68daecd823babbb58edb1c8e14d7106e83bb&#45;&gt;place_5ddc5ed35736589d013bb4f70a4a4f2ae59a10bd -->
<g id="edge8" class="edge">
<title>transition_77de68daecd823babbb58edb1c8e14d7106e83bb&#45;&gt;place_5ddc5ed35736589d013bb4f70a4a4f2ae59a10bd</title>
<path fill="none" stroke="#333333" d="M396.22,-37.33C405.94,-37.24 416.56,-37.14 426.58,-37.05"/>
<polygon fill="#333333" stroke="#333333" points="426.77,-38.8 431.75,-37 426.73,-35.3 426.77,-38.8"/>
</g>
<!-- transition_1b6453892473a467d07372d45eb05abc2031647a&#45;&gt;place_4bc88b13ed225d92881d0683de8e96c47c992eb8 -->
<g id="edge10" class="edge">
<title>transition_1b6453892473a467d07372d45eb05abc2031647a&#45;&gt;place_4bc88b13ed225d92881d0683de8e96c47c992eb8</title>
<path fill="none" stroke="#333333" d="M541.07,-77.9C480.48,-86.89 356.96,-105.23 293.15,-114.7"/>
<polygon fill="#333333" stroke="#333333" points="292.6,-113.02 287.91,-115.48 293.11,-116.48 292.6,-113.02"/>
</g>
</g>
</svg>
