<?xml version="1.0" encoding="UTF-8" standalone="no"?>
<!DOCTYPE svg PUBLIC "-//W3C//DTD SVG 1.1//EN"
 "http://www.w3.org/Graphics/SVG/1.1/DTD/svg11.dtd">
<!-- Generated by graphviz version 5.0.0 (20220707.1540)
 -->
<!-- Title: workflow Pages: 1 -->
<svg width="857pt" height="291pt"
 viewBox="0.00 0.00 857.25 291.00" xmlns="http://www.w3.org/2000/svg" xmlns:xlink="http://www.w3.org/1999/xlink">
<g id="graph0" class="graph" transform="scale(1 1) rotate(0) translate(4 287)">
<title>workflow</title>
<polygon fill="white" stroke="transparent" points="-4,4 -4,-287 853.25,-287 853.25,4 -4,4"/>
<!-- place_943d9ab6a4d1823ffb91f585c255e2de8abcfbbc -->
<g id="node1" class="node">
<title>place_943d9ab6a4d1823ffb91f585c255e2de8abcfbbc</title>
<ellipse fill="lightblue" stroke="#333333" cx="36" cy="-81" rx="36" ry="36"/>
<text text-anchor="middle" x="36" y="-78.8" font-family="Arial" font-size="9.00">new_blog</text>
</g>
<!-- transition_b6589fc6ab0dc82cf12099d1c2d40ab994e8410c -->
<g id="node6" class="node">
<title>transition_b6589fc6ab0dc82cf12099d1c2d40ab994e8410c</title>
<polygon fill="none" stroke="#333333" points="180,-117 108,-117 108,-45 180,-45 180,-117"/>
<text text-anchor="middle" x="144" y="-78.8" font-family="Arial" font-size="9.00">create_blog</text>
</g>
<!-- place_943d9ab6a4d1823ffb91f585c255e2de8abcfbbc&#45;&gt;transition_b6589fc6ab0dc82cf12099d1c2d40ab994e8410c -->
<g id="edge1" class="edge">
<title>place_943d9ab6a4d1823ffb91f585c255e2de8abcfbbc&#45;&gt;transition_b6589fc6ab0dc82cf12099d1c2d40ab994e8410c</title>
<path fill="none" stroke="#333333" d="M72,-81C81.76,-81 92.44,-81 102.49,-81"/>
<polygon fill="#333333" stroke="#333333" points="102.67,-82.75 107.67,-81 102.67,-79.25 102.67,-82.75"/>
</g>
<!-- place_cf33d5b52482b31b226cf880fbcb6e014ef05bcc -->
<g id="node2" class="node">
<title>place_cf33d5b52482b31b226cf880fbcb6e014ef05bcc</title>
<ellipse fill="ORANGE" stroke="#333333" cx="261.96" cy="-81" rx="45.92" ry="45.92"/>
<text text-anchor="middle" x="261.96" y="-78.8" font-family="Arial" font-size="9.00">checking_content</text>
</g>
<!-- transition_356a192b7913b04c54574d18c28d46e6395428ab -->
<g id="node7" class="node">
<title>transition_356a192b7913b04c54574d18c28d46e6395428ab</title>
<polygon fill="none" stroke="#333333" points="415.92,-155 343.92,-155 343.92,-83 415.92,-83 415.92,-155"/>
<text text-anchor="middle" x="379.92" y="-116.8" font-family="Arial" font-size="9.00">valid</text>
</g>
<!-- place_cf33d5b52482b31b226cf880fbcb6e014ef05bcc&#45;&gt;transition_356a192b7913b04c54574d18c28d46e6395428ab -->
<g id="edge3" class="edge">
<title>place_cf33d5b52482b31b226cf880fbcb6e014ef05bcc&#45;&gt;transition_356a192b7913b04c54574d18c28d46e6395428ab</title>
<path fill="none" stroke="#333333" d="M305.81,-95.04C316.66,-98.6 328.28,-102.4 338.98,-105.91"/>
<polygon fill="#333333" stroke="#333333" points="338.53,-107.61 343.83,-107.5 339.62,-104.28 338.53,-107.61"/>
</g>
<!-- transition_da4b9237bacccdf19c0760cab7aec4a8359010b0 -->
<g id="node8" class="node">
<title>transition_da4b9237bacccdf19c0760cab7aec4a8359010b0</title>
<polygon fill="none" stroke="#333333" points="523.92,-72 451.92,-72 451.92,0 523.92,0 523.92,-72"/>
<text text-anchor="middle" x="487.92" y="-33.8" font-family="Arial" font-size="9.00">invalid</text>
</g>
<!-- place_cf33d5b52482b31b226cf880fbcb6e014ef05bcc&#45;&gt;transition_da4b9237bacccdf19c0760cab7aec4a8359010b0 -->
<g id="edge5" class="edge">
<title>place_cf33d5b52482b31b226cf880fbcb6e014ef05bcc&#45;&gt;transition_da4b9237bacccdf19c0760cab7aec4a8359010b0</title>
<path fill="none" stroke="#333333" d="M307.21,-72.11C347.71,-63.97 407.15,-52.03 446.43,-44.14"/>
<polygon fill="#333333" stroke="#333333" points="447.04,-45.8 451.59,-43.1 446.35,-42.37 447.04,-45.8"/>
</g>
<!-- place_4bc88b13ed225d92881d0683de8e96c47c992eb8 -->
<g id="node3" class="node">
<title>place_4bc88b13ed225d92881d0683de8e96c47c992eb8</title>
<ellipse fill="DeepSkyBlue" stroke="#333333" cx="487.92" cy="-145" rx="36" ry="36"/>
<text text-anchor="middle" x="487.92" y="-142.8" font-family="Arial" font-size="9.00">need_review</text>
</g>
<!-- transition_77de68daecd823babbb58edb1c8e14d7106e83bb -->
<g id="node9" class="node">
<title>transition_77de68daecd823babbb58edb1c8e14d7106e83bb</title>
<polygon fill="none" stroke="#333333" points="631.92,-283 559.92,-283 559.92,-211 631.92,-211 631.92,-283"/>
<text text-anchor="middle" x="595.92" y="-244.8" font-family="Arial" font-size="9.00">publish</text>
</g>
<!-- place_4bc88b13ed225d92881d0683de8e96c47c992eb8&#45;&gt;transition_77de68daecd823babbb58edb1c8e14d7106e83bb -->
<g id="edge7" class="edge">
<title>place_4bc88b13ed225d92881d0683de8e96c47c992eb8&#45;&gt;transition_77de68daecd823babbb58edb1c8e14d7106e83bb</title>
<path fill="none" stroke="#333333" d="M514.58,-169.69C527.01,-181.66 542.21,-196.28 556.03,-209.58"/>
<polygon fill="#333333" stroke="#333333" points="555.07,-211.08 559.88,-213.29 557.5,-208.56 555.07,-211.08"/>
</g>
<!-- transition_ac3478d69a3c81fa62e60f5c3696165a4e5e6ac4 -->
<g id="node11" class="node">
<title>transition_ac3478d69a3c81fa62e60f5c3696165a4e5e6ac4</title>
<polygon fill="none" stroke="#333333" points="631.92,-117 559.92,-117 559.92,-45 631.92,-45 631.92,-117"/>
<text text-anchor="middle" x="595.92" y="-78.8" font-family="Arial" font-size="9.00">reject</text>
</g>
<!-- place_4bc88b13ed225d92881d0683de8e96c47c992eb8&#45;&gt;transition_ac3478d69a3c81fa62e60f5c3696165a4e5e6ac4 -->
<g id="edge11" class="edge">
<title>place_4bc88b13ed225d92881d0683de8e96c47c992eb8&#45;&gt;transition_ac3478d69a3c81fa62e60f5c3696165a4e5e6ac4</title>
<path fill="none" stroke="#333333" d="M519.01,-126.83C530.35,-119.99 543.42,-112.09 555.49,-104.81"/>
<polygon fill="#333333" stroke="#333333" points="556.5,-106.24 559.88,-102.16 554.7,-103.24 556.5,-106.24"/>
</g>
<!-- place_5ddc5ed35736589d013bb4f70a4a4f2ae59a10bd -->
<g id="node4" class="node">
<title>place_5ddc5ed35736589d013bb4f70a4a4f2ae59a10bd</title>
<ellipse fill="Orchid" stroke="#333333" cx="704.58" cy="-80" rx="36.83" ry="36.83"/>
<text text-anchor="middle" x="704.58" y="-77.8" font-family="Arial" font-size="9.00">need_update</text>
</g>
<!-- transition_c1dfd96eea8cc2b62785275bca38ac261256e278 -->
<g id="node12" class="node">
<title>transition_c1dfd96eea8cc2b62785275bca38ac261256e278</title>
<polygon fill="none" stroke="#333333" points="849.25,-152 777.25,-152 777.25,-80 849.25,-80 849.25,-152"/>
<text text-anchor="middle" x="813.25" y="-113.8" font-family="Arial" font-size="9.00">update</text>
</g>
<!-- place_5ddc5ed35736589d013bb4f70a4a4f2ae59a10bd&#45;&gt;transition_c1dfd96eea8cc2b62785275bca38ac261256e278 -->
<g id="edge13" class="edge">
<title>place_5ddc5ed35736589d013bb4f70a4a4f2ae59a10bd&#45;&gt;transition_c1dfd96eea8cc2b62785275bca38ac261256e278</title>
<path fill="none" stroke="#333333" d="M739.63,-91.49C749.99,-94.99 761.47,-98.86 772.2,-102.48"/>
<polygon fill="#333333" stroke="#333333" points="771.76,-104.18 777.06,-104.12 772.88,-100.87 771.76,-104.18"/>
</g>
<!-- place_c2807535f28e44fe6c7375dcf90518115529a8fa -->
<g id="node5" class="node">
<title>place_c2807535f28e44fe6c7375dcf90518115529a8fa</title>
<ellipse fill="Lime" stroke="#333333" cx="704.58" cy="-247" rx="36" ry="36"/>
<text text-anchor="middle" x="704.58" y="-244.8" font-family="Arial" font-size="9.00">published</text>
</g>
<!-- transition_1b6453892473a467d07372d45eb05abc2031647a -->
<g id="node10" class="node">
<title>transition_1b6453892473a467d07372d45eb05abc2031647a</title>
<polygon fill="none" stroke="#333333" points="849.25,-248 777.25,-248 777.25,-176 849.25,-176 849.25,-248"/>
<text text-anchor="middle" x="813.25" y="-209.8" font-family="Arial" font-size="9.00">need_review</text>
</g>
<!-- place_c2807535f28e44fe6c7375dcf90518115529a8fa&#45;&gt;transition_1b6453892473a467d07372d45eb05abc2031647a -->
<g id="edge9" class="edge">
<title>place_c2807535f28e44fe6c7375dcf90518115529a8fa&#45;&gt;transition_1b6453892473a467d07372d45eb05abc2031647a</title>
<path fill="none" stroke="#333333" d="M739.04,-236.02C749.53,-232.58 761.22,-228.74 772.12,-225.17"/>
<polygon fill="#333333" stroke="#333333" points="772.86,-226.77 777.07,-223.54 771.77,-223.44 772.86,-226.77"/>
</g>
<!-- transition_b6589fc6ab0dc82cf12099d1c2d40ab994e8410c&#45;&gt;place_cf33d5b52482b31b226cf880fbcb6e014ef05bcc -->
<g id="edge2" class="edge">
<title>transition_b6589fc6ab0dc82cf12099d1c2d40ab994e8410c&#45;&gt;place_cf33d5b52482b31b226cf880fbcb6e014ef05bcc</title>
<path fill="none" stroke="#333333" d="M180.11,-81C189.73,-81 200.36,-81 210.65,-81"/>
<polygon fill="#333333" stroke="#333333" points="210.68,-82.75 215.68,-81 210.67,-79.25 210.68,-82.75"/>
</g>
<!-- transition_356a192b7913b04c54574d18c28d46e6395428ab&#45;&gt;place_4bc88b13ed225d92881d0683de8e96c47c992eb8 -->
<g id="edge4" class="edge">
<title>transition_356a192b7913b04c54574d18c28d46e6395428ab&#45;&gt;place_4bc88b13ed225d92881d0683de8e96c47c992eb8</title>
<path fill="none" stroke="#333333" d="M415.92,-127.59C426.08,-130.08 437.24,-132.81 447.64,-135.37"/>
<polygon fill="#333333" stroke="#333333" points="447.4,-137.11 452.68,-136.6 448.24,-133.71 447.4,-137.11"/>
</g>
<!-- transition_da4b9237bacccdf19c0760cab7aec4a8359010b0&#45;&gt;place_5ddc5ed35736589d013bb4f70a4a4f2ae59a10bd -->
<g id="edge6" class="edge">
<title>transition_da4b9237bacccdf19c0760cab7aec4a8359010b0&#45;&gt;place_5ddc5ed35736589d013bb4f70a4a4f2ae59a10bd</title>
<path fill="none" stroke="#333333" d="M524.03,-30.76C553.43,-27.6 596.2,-25.91 631.92,-36 645.68,-39.89 659.41,-47.24 671.11,-54.84"/>
<polygon fill="#333333" stroke="#333333" points="670.19,-56.34 675.32,-57.65 672.13,-53.42 670.19,-56.34"/>
</g>
<!-- transition_77de68daecd823babbb58edb1c8e14d7106e83bb&#45;&gt;place_c2807535f28e44fe6c7375dcf90518115529a8fa -->
<g id="edge8" class="edge">
<title>transition_77de68daecd823babbb58edb1c8e14d7106e83bb&#45;&gt;place_c2807535f28e44fe6c7375dcf90518115529a8fa</title>
<path fill="none" stroke="#333333" d="M632.14,-247C642.06,-247 652.93,-247 663.13,-247"/>
<polygon fill="#333333" stroke="#333333" points="663.4,-248.75 668.4,-247 663.4,-245.25 663.4,-248.75"/>
</g>
<!-- transition_1b6453892473a467d07372d45eb05abc2031647a&#45;&gt;place_4bc88b13ed225d92881d0683de8e96c47c992eb8 -->
<g id="edge10" class="edge">
<title>transition_1b6453892473a467d07372d45eb05abc2031647a&#45;&gt;place_4bc88b13ed225d92881d0683de8e96c47c992eb8</title>
<path fill="none" stroke="#333333" d="M776.83,-204.66C715.98,-192.05 591.99,-166.36 528.43,-153.19"/>
<polygon fill="#333333" stroke="#333333" points="528.47,-151.41 523.21,-152.11 527.76,-154.83 528.47,-151.41"/>
</g>
<!-- transition_ac3478d69a3c81fa62e60f5c3696165a4e5e6ac4&#45;&gt;place_5ddc5ed35736589d013bb4f70a4a4f2ae59a10bd -->
<g id="edge12" class="edge">
<title>transition_ac3478d69a3c81fa62e60f5c3696165a4e5e6ac4&#45;&gt;place_5ddc5ed35736589d013bb4f70a4a4f2ae59a10bd</title>
<path fill="none" stroke="#333333" d="M632.14,-80.67C641.86,-80.58 652.48,-80.48 662.49,-80.39"/>
<polygon fill="#333333" stroke="#333333" points="662.69,-82.13 667.67,-80.34 662.65,-78.63 662.69,-82.13"/>
</g>
<!-- transition_c1dfd96eea8cc2b62785275bca38ac261256e278&#45;&gt;place_4bc88b13ed225d92881d0683de8e96c47c992eb8 -->
<g id="edge14" class="edge">
<title>transition_c1dfd96eea8cc2b62785275bca38ac261256e278&#45;&gt;place_4bc88b13ed225d92881d0683de8e96c47c992eb8</title>
<path fill="none" stroke="#333333" d="M776.91,-121.44C765.54,-123.06 752.88,-124.74 741.25,-126 666.51,-134.07 578.94,-139.84 529.09,-142.78"/>
<polygon fill="#333333" stroke="#333333" points="528.98,-141.03 524.09,-143.07 529.18,-144.53 528.98,-141.03"/>
</g>
</g>
</svg>
